<?xml version="1.0" encoding="utf-8"?>
<!-- Generator: Adobe Illustrator 27.4.0, SVG Export Plug-In . SVG Version: 6.00 Build 0)  -->
<svg version="1.1" id="Layer_1" xmlns="http://www.w3.org/2000/svg" xmlns:xlink="http://www.w3.org/1999/xlink" x="0px" y="0px"
	 viewBox="0 0 64 63.9" style="enable-background:new 0 0 64 63.9;" xml:space="preserve">
<style type="text/css">
	.st0{fill:#345466;}
</style>
<g>
	<path class="st0" d="M36,63.9h-8c-1.9,0-4-1.6-4-4.8v-5.6c-0.1-2.7-1.3-5.2-3.5-6.9c-4.6-3.6-7.3-9.1-7.2-14.9
		c0.3-10,8.4-18.1,18.4-18.4c5-0.1,9.8,1.9,13.3,5.3c3.6,3.5,5.6,8.3,5.6,13.3c0.1,5.6-2.5,11-6.9,14.4c-2.3,1.8-3.7,4.5-3.7,7.5
		v6.1C40,62.1,38.2,63.8,36,63.9z M32,15.9c-8.7,0.2-15.7,7.1-16,15.7c-0.1,5,2.2,9.8,6.1,12.8c2.8,2.2,4.4,5.5,4.5,9.1v5.6
		c0,0.5,0,2.1,1.3,2.1h8c0.7,0,1.3-0.5,1.3-1.2c0-0.1,0-0.1,0-0.2v-6.1c0.1-3.7,1.9-7.2,4.8-9.6c3.8-3,5.9-7.5,5.9-12.3
		c0-4.3-1.7-8.5-4.8-11.5C40.2,17.5,36.2,15.9,32,15.9L32,15.9z"/>
	<path class="st0" d="M38.6,55.9H25.3c-0.7,0.1-1.4-0.5-1.5-1.2s0.5-1.4,1.2-1.5c0.1,0,0.2,0,0.2,0h13.3c0.7-0.1,1.4,0.5,1.5,1.2
		s-0.5,1.4-1.2,1.5C38.8,55.9,38.7,55.9,38.6,55.9z"/>
	<path class="st0" d="M32,7.9c-0.7,0.1-1.3-0.5-1.4-1.2c0-0.1,0-0.1,0-0.2V1.2c0.1-0.7,0.7-1.3,1.5-1.2c0.6,0.1,1.2,0.6,1.2,1.2v5.3
		c0,0.7-0.5,1.3-1.2,1.3C32.1,7.9,32,7.9,32,7.9z"/>
	<path class="st0" d="M49.9,15.4c-0.4,0-0.8-0.1-1.1-0.3c-0.5-0.5-0.5-1.3,0-1.8c0,0,0,0,0,0l3.7-3.7C53.1,9,53.9,9,54.4,9.6
		c0.5,0.5,0.5,1.3,0,1.8l-3.7,3.7C50.4,15.2,50.2,15.3,49.9,15.4z"/>
	<path class="st0" d="M62.7,33.2h-5.3c-0.7,0-1.3-0.6-1.3-1.3s0.6-1.3,1.3-1.3h5.3c0.7,0,1.3,0.6,1.3,1.3S63.4,33.2,62.7,33.2
		L62.7,33.2z"/>
	<path class="st0" d="M53.6,54.8c-0.4,0-0.8-0.1-1.1-0.3l-3.7-3.7c-0.4-0.6-0.3-1.4,0.3-1.8c0.5-0.3,1.1-0.3,1.6,0l3.7,3.7
		c0.5,0.5,0.5,1.3,0,1.8c0,0,0,0,0,0C54.4,54.9,54.1,54.9,53.6,54.8L53.6,54.8z"/>
	<path class="st0" d="M10.4,54.8c-0.4,0-0.8-0.1-1.1-0.3c-0.5-0.5-0.5-1.3,0-1.8c0,0,0,0,0,0l3.7-3.7c0.5-0.5,1.4-0.5,1.9,0
		c0.5,0.5,0.5,1.4,0,1.9l0,0l-3.7,3.7C11,54.8,10.7,54.9,10.4,54.8z"/>
	<path class="st0" d="M6.6,33.2H1.3c-0.7,0-1.3-0.6-1.3-1.3s0.6-1.3,1.3-1.3h5.3c0.7,0,1.3,0.6,1.3,1.3S7.4,33.2,6.6,33.2L6.6,33.2z
		"/>
	<path class="st0" d="M14.1,15.4c-0.4,0-0.8-0.1-1.1-0.3l-3.7-4c-0.5-0.5-0.5-1.4,0-1.9s1.4-0.5,1.9,0l0,0l3.7,3.8
		c0.5,0.5,0.5,1.3,0,1.8c0,0,0,0,0,0C14.7,15.1,14.4,15.4,14.1,15.4L14.1,15.4z"/>
	<path class="st0" d="M42.6,33.2c-0.7,0-1.3-0.5-1.3-1.2c0-0.1,0-0.1,0-0.2c-0.1-5.1-4.2-9.3-9.3-9.3c-0.7,0.1-1.4-0.5-1.5-1.2
		s0.5-1.4,1.2-1.5c0.1,0,0.2,0,0.2,0c6.6,0,12,5.4,12,12c0,0.7-0.5,1.3-1.2,1.3C42.7,33.2,42.7,33.2,42.6,33.2z"/>
</g>
</svg>
