<?xml version="1.0" encoding="utf-8"?>
<!-- Generator: Adobe Illustrator 27.4.0, SVG Export Plug-In . SVG Version: 6.00 Build 0)  -->
<svg version="1.1" id="Layer_1" xmlns="http://www.w3.org/2000/svg" xmlns:xlink="http://www.w3.org/1999/xlink" x="0px" y="0px"
	 viewBox="0 0 44.1 71.2" style="enable-background:new 0 0 44.1 71.2;" xml:space="preserve">
<style type="text/css">
	.st0{fill:#345466;}
</style>
<g>
	<path class="st0" d="M29.2,41.9c3-1.7,5.2-4.5,6.3-7.8h0.1c3,0,5.4-2.4,5.5-5.4c0-2.8-2.1-5.1-4.9-5.4v-6.2l2.9-2.3
		c2.9-2.3,3.3-6.5,1-9.4c-0.6-0.8-1.4-1.4-2.3-1.8C32.9,1.3,27.5,0,22.1,0c-3.2,0-6.4,0.4-9.5,1.3c-0.6,0.2-0.9,0.7-0.7,1.3
		c0.1,0.5,0.7,0.9,1.2,0.8c0,0,0.1,0,0.1,0c2.9-0.8,5.9-1.2,8.9-1.2c5.1,0,10.2,1.2,14.9,3.4c2.3,1.1,3.2,3.9,2.1,6.2
		c-0.3,0.6-0.7,1.1-1.2,1.6l-3,2.4h-5.7c-0.6,0-1,0.5-1,1c0,0.6,0.5,1,1,1h4.3c-1.3,1.7-4.5,4.5-11.4,4.5c-4.1,0-7.6-1-9.9-3
		c-0.6-0.4-1.1-0.9-1.5-1.5H25c0.6,0,1-0.5,1-1c0-0.6-0.5-1-1-1H9.3l-3-2.4c-2-1.6-2.3-4.5-0.7-6.5c0.4-0.5,1-1,1.6-1.2
		c0.7-0.3,1.4-0.6,2.1-0.9c0.5-0.2,0.8-0.8,0.6-1.4C9.6,2.7,9,2.4,8.5,2.6C7.7,2.9,7,3.2,6.3,3.6C4,4.7,2.5,7,2.5,9.6
		c0,2,0.9,3.9,2.5,5.2l2.8,2.3v6.1c-3,0.3-5.2,3-4.8,6c0.3,2.8,2.6,4.9,5.4,4.9h0.2c1.1,3.3,3.4,6.1,6.4,7.8C6.4,43.1,0,50.4,0,59v2
		c0,0.6,0.5,1,1,1c0.6,0,1-0.5,1-1v-2c0-2.3,0.5-4.6,1.5-6.6c1.4,1.8,3.9,2.3,5.8,1.1l3.4-2l1.9,4.8c0.2,0.5,0.7,0.8,1.3,0.6
		c0.1,0,0.2-0.1,0.3-0.2l1.3-1l1.2,2.6l-3.2,10.8h-5.3V61c0-0.6-0.5-1-1-1c-0.6,0-1,0.5-1,1v8.2H2.1v-4c0-0.6-0.5-1-1-1
		c-0.6,0-1,0.5-1,1v5c0,0.6,0.4,1,1,1h42.1c0.6,0,1-0.4,1-1V59C44.1,50.4,37.8,43.1,29.2,41.9z M36.3,29.6v-4.2
		c1.8,0.3,3,2.1,2.7,3.9c-0.3,1.4-1.4,2.5-2.9,2.7C36.2,31.2,36.3,30.4,36.3,29.6z M5.1,28.7c0-1.6,1.2-3,2.8-3.3v4.2
		c0,0.8,0.1,1.6,0.2,2.4C6.4,31.8,5.1,30.4,5.1,28.7L5.1,28.7z M39.3,50.3c-0.4,1.3-1.7,2-2.9,1.7c-0.1,0-0.3-0.1-0.4-0.2l1.6-3.6
		C38.2,48.8,38.8,49.5,39.3,50.3z M23.6,50.9l5.3-7c1,0.1,2,0.4,3,0.7L28,54.2L23.6,50.9z M26.3,43.8l-4.2,5.5l-4.2-5.6L26.3,43.8z
		 M33.8,45.5c0.7,0.4,1.4,0.8,2,1.2l-1.7,4l-2-1.2L33.8,45.5z M10,29.6V20c2,2,5.6,4.3,12.1,4.3S32.3,22,34.2,20v9.6
		c0,6.7-5.4,12.1-12.1,12.1C15.4,41.7,10,36.3,10,29.6z M6.4,51.9c-0.8-0.3-1.3-0.9-1.6-1.7c0.5-0.8,1.2-1.5,1.8-2.1l1.5,3.6
		C7.7,52.1,7,52.1,6.4,51.9L6.4,51.9z M10,50.7l-1.7-4c0.6-0.5,1.3-0.9,2-1.2l1.6,4L10,50.7z M16.2,54.2l-3.9-9.6c1-0.3,2-0.6,3-0.7
		l5.3,7L16.2,54.2z M22.1,52.3l2.7,2l-1.3,2.7h-2.8l-1.3-2.7L22.1,52.3z M20.8,59.2h2.7l2.9,9.9h-8.4L20.8,59.2z M42.1,69.1h-6.2V61
		c0-0.6-0.5-1-1-1s-1,0.5-1,1v8.2h-5.3l-3.1-10.9l1.2-2.6l1.3,1c0.5,0.3,1.1,0.2,1.5-0.2c0-0.1,0.1-0.1,0.1-0.2l1.9-4.8l3.4,2
		c1.9,1.2,4.5,0.7,5.8-1.1c1,2.1,1.5,4.3,1.5,6.6L42.1,69.1L42.1,69.1z"/>
	<path class="st0" d="M15.7,24.5c-0.6,0-1,0.4-1,1v3c0,0.6,0.5,1,1,1s1-0.5,1-1v-3C16.8,24.9,16.3,24.5,15.7,24.5
		C15.8,24.5,15.7,24.5,15.7,24.5z"/>
	<path class="st0" d="M28.5,29.5c0.6,0,1-0.4,1-1v-3c0-0.6-0.5-1-1-1s-1,0.5-1,1v3C27.4,29.1,27.8,29.5,28.5,29.5
		C28.4,29.5,28.4,29.5,28.5,29.5z"/>
	<path class="st0" d="M19.5,13h0.3c1.4,1,3.2,1,4.6,0c4.4,0.2,7-3.9,7.8-6.2c0.2-0.5,0-1.1-0.5-1.3c-0.1-0.1-0.3-0.1-0.5-0.1h-4.6
		c-0.5,0-0.9,0.3-1,0.7l-0.1,0.2c-1.3-1.9-3.8-2.3-5.7-1.1C19.3,5.6,19,6,18.7,6.4c0-0.1-0.1-0.2-0.1-0.2c-0.1-0.4-0.5-0.7-1-0.7H13
		c-0.6,0-1,0.4-1.1,0.9c0,0.2,0,0.3,0.1,0.5C12.7,9,15.2,13,19.5,13L19.5,13z M17,7.5c0.4,0.6,0.9,1.2,1.4,1.6
		c0.5,0.4,1.1,0.3,1.5-0.2c0.1-0.1,0.2-0.3,0.2-0.5c0-1.1,0.9-2,2-2s2,0.9,2,2c0.1,0.6,0.6,1,1.2,0.9c0.2,0,0.4-0.1,0.5-0.2
		c0.6-0.5,1.1-1,1.4-1.6h2.3C29.3,8,29,8.4,28.7,8.8c-1,1.4-2.7,2.2-4.5,2.1c-0.3,0-0.6,0.1-0.8,0.2c-0.8,0.7-1.9,0.7-2.6,0
		c-0.2-0.2-0.5-0.3-0.8-0.2c-1.8,0.1-3.5-0.7-4.5-2.1c-0.3-0.4-0.6-0.8-0.9-1.3L17,7.5z"/>
	<path class="st0" d="M25.9,34.2c0.2-0.5,0-1.1-0.5-1.4c-0.5-0.2-1.1,0-1.4,0.5c0,0.1-0.5,0.9-1.9,0.9s-1.9-0.8-1.9-0.9
		c-0.2-0.5-0.9-0.8-1.4-0.5s-0.8,0.9-0.5,1.4c1.3,2.1,4.1,2.8,6.2,1.5C25.1,35.3,25.6,34.8,25.9,34.2z"/>
</g>
</svg>
