<?xml version="1.0" encoding="utf-8"?>
<!-- Generator: Adobe Illustrator 27.4.0, SVG Export Plug-In . SVG Version: 6.00 Build 0)  -->
<svg version="1.1" id="Layer_1" xmlns="http://www.w3.org/2000/svg" xmlns:xlink="http://www.w3.org/1999/xlink" x="0px" y="0px"
	 viewBox="0 0 64.1 64.1" style="enable-background:new 0 0 64.1 64.1;" xml:space="preserve">
<style type="text/css">
	.st0{fill:#345466;}
</style>
<g>
	<path class="st0" d="M62.1,36.4l-15.1-9V22c0-1.1-0.9-1.9-1.9-1.9l0,0h-3c-1.1,0-1.9,0.9-1.9,1.9l0,0v1.3L37,21.5V15
		c0-0.5-0.4-0.9-0.9-0.9c-0.5,0-0.9,0.4-0.9,0.9v32.1c-0.1,3.7-0.8,7.3-2.2,10.7V47.1c0.1-0.5-0.3-1-0.8-1s-1,0.3-1,0.8
		c0,0.1,0,0.1,0,0.2v10.7c-1.3-3.4-2.1-7-2.1-10.7V8.9c0.1-1.7,1.6-3,3.3-2.9c1.6,0.1,2.8,1.3,2.9,2.9v2c0,0.5,0.4,0.9,0.9,0.9
		c0.5,0,0.9-0.4,0.9-0.9V7.2c-0.1-2.4-1.1-4.6-2.8-6.2c-1.1-1.2-3-1.3-4.2-0.2c-0.1,0-0.1,0.1-0.2,0.2c-1.7,1.7-2.6,3.9-2.8,6.2
		v14.2l-3.1,1.9V22c0-1.1-0.9-1.9-1.9-1.9l0,0h-3c-1.1,0-1.9,0.9-1.9,1.9v5.4l-15.1,9c-1.2,0.7-1.9,2-1.9,3.4v4.3
		C0,44.6,0.4,45,0.9,45c0.5,0,0.9-0.4,0.9-0.9v-1.3l18.5-6.5c0.5-0.2,1.1-0.3,1.7-0.3h2c0.5,0.1,1-0.3,1-0.8s-0.3-1-0.8-1
		c-0.1,0-0.1,0-0.2,0h-2c-0.8,0-1.6,0.1-2.3,0.4L1.9,40.7v-1c0-0.7,0.4-1.4,1-1.8l24.2-14.3v23.5c0,2.3,0.3,4.5,0.9,6.7l-6.7,5
		c-0.7,0.6-1.2,1.4-1.2,2.3v2c0,0.3,0.1,0.6,0.4,0.8c0.2,0.1,0.4,0.2,0.6,0.2c0.1,0,0.2,0,0.3,0l9.3-2.8c0.4,0.8,0.7,1.3,0.7,1.3
		c0.2,0.5,0.8,0.6,1.3,0.4c0.2-0.1,0.3-0.2,0.4-0.4c0-0.1,0.3-0.5,0.7-1.3l9.3,2.8c0.1,0,0.2,0,0.3,0c0.2,0,0.4-0.1,0.6-0.2
		c0.2-0.2,0.4-0.5,0.4-0.8v-2c0-0.9-0.4-1.8-1.2-2.3l-6.7-5c0.5-2.2,0.8-4.4,0.8-6.7V36h5.1c0.6,0,1.1,0.1,1.7,0.3l18.5,6.5v1.3
		c0,0.5,0.4,0.9,0.9,0.9c0.5,0,0.9-0.4,0.9-0.9v-4.3C64.1,38.4,63.4,37.1,62.1,36.4L62.1,36.4z M18.9,22C18.9,22,19,21.9,18.9,22
		l3.1-0.1c0,0,0.1,0,0.1,0.1v2.4l-3.1,1.9V22z M42,22C42,22,42,21.9,42,22l3.1-0.1c0,0,0.1,0,0.1,0.1v4.3L42,24.4L42,22L42,22z
		 M31.2,2.2c0.4-0.4,1.1-0.5,1.5-0.1c0,0,0.1,0.1,0.1,0.1c0.7,0.7,1.2,1.5,1.7,2.4c-1.5-0.9-3.4-0.9-4.9,0C30,3.7,30.6,2.9,31.2,2.2
		L31.2,2.2z M21.9,61.9v-0.8c0-0.3,0.2-0.6,0.4-0.8l6-4.5c0.4,1.3,0.8,2.6,1.3,3.8L21.9,61.9z M41.7,60.3c0.3,0.2,0.4,0.5,0.4,0.8
		v0.8l-7.8-2.3c0.5-1.2,1-2.5,1.3-3.8L41.7,60.3z M44.3,34.5c-0.7-0.3-1.5-0.4-2.3-0.4H37V23.6L61.2,38c0.6,0.4,1,1.1,1,1.8v1
		L44.3,34.5z"/>
</g>
</svg>
