<?xml version="1.0" encoding="utf-8"?>
<!-- Generator: Adobe Illustrator 27.4.0, SVG Export Plug-In . SVG Version: 6.00 Build 0)  -->
<svg version="1.1" id="Layer_1" xmlns="http://www.w3.org/2000/svg" xmlns:xlink="http://www.w3.org/1999/xlink" x="0px" y="0px"
	 viewBox="0 0 72.2 58.3" style="enable-background:new 0 0 72.2 58.3;" xml:space="preserve">
<style type="text/css">
	.st0{fill:none;stroke:#345466;stroke-width:2;stroke-linejoin:round;}
	.st1{fill:#345466;}
</style>
<g>
	<polygon class="st0" points="71.2,57.3 55.4,57.3 63.3,43.8 	"/>
	<polygon class="st0" points="67.1,1 59.5,1 55.7,7.6 59.5,14.2 67.1,14.2 70.9,7.6 	"/>
	<path class="st1" d="M25.1,36.9c-0.3-0.4-0.9-0.5-1.3-0.2l-6.4,4.8c-0.3,0.2-0.4,0.5-0.4,0.9c0,0.2,0.1,0.3,0.2,0.4
		c0.3,0.4,0.9,0.5,1.3,0.2l6.4-4.8C25.3,37.9,25.4,37.3,25.1,36.9C25.1,36.9,25.1,36.9,25.1,36.9z"/>
	<path class="st0" d="M2.5,1h10.5c0.7,0,1.3,0.6,1.3,1.3v10.5c0,0.7-0.6,1.3-1.3,1.3H2.5c-0.7,0-1.3-0.6-1.3-1.3V2.3
		C1.2,1.6,1.8,1,2.5,1z"/>
	<path class="st1" d="M50.5,49.4l-4.1-3.8c-0.4-0.3-0.9-0.3-1.2,0c-0.3,0.4-0.3,0.9,0,1.2l2.4,2.2H34.9c-0.5,0-0.9,0.4-0.9,0.9l0,0
		c0,0.5,0.4,0.9,0.9,0.9h12.7l-2.4,2.2c-0.4,0.3-0.4,0.9,0,1.2c0.3,0.4,0.9,0.4,1.2,0l4.1-3.8C50.8,50.4,50.9,49.9,50.5,49.4
		C50.5,49.5,50.5,49.4,50.5,49.4z"/>
	<circle class="st0" cx="7.8" cy="50.1" r="6.8"/>
	<path class="st1" d="M35,29.4c-0.3-0.4-0.9-0.5-1.3-0.2L27.3,34c-0.3,0.2-0.4,0.5-0.4,0.9c0,0.2,0.1,0.3,0.2,0.5
		c0.3,0.4,0.9,0.5,1.3,0.2l6.4-4.8C35.2,30.5,35.3,29.9,35,29.4C35,29.4,35,29.4,35,29.4z"/>
	<path class="st1" d="M44.9,21.9c-0.3-0.4-0.9-0.5-1.3-0.2l-6.4,4.8c-0.3,0.2-0.4,0.5-0.4,0.9c0,0.2,0.1,0.3,0.2,0.4
		c0.3,0.4,0.9,0.5,1.3,0.2l6.4-4.8C45.1,22.9,45.2,22.3,44.9,21.9C44.9,21.9,44.9,21.9,44.9,21.9z"/>
	<path class="st1" d="M54.7,14.4c-0.3-0.4-0.9-0.5-1.3-0.2L47,19c-0.3,0.2-0.4,0.5-0.4,0.9c0,0.2,0.1,0.3,0.2,0.5
		c0.3,0.4,0.9,0.5,1.3,0.2l6.4-4.8C54.9,15.5,55,14.9,54.7,14.4C54.7,14.4,54.7,14.4,54.7,14.4z"/>
	<path class="st1" d="M28,7.6c0-0.5-0.4-0.9-0.9-0.9c0,0,0,0,0,0h-7.6c-0.3,0-0.6,0.2-0.8,0.4c-0.1,0.1-0.1,0.3-0.1,0.5
		c0,0.5,0.4,0.9,0.9,0.9c0,0,0,0,0,0h7.6C27.6,8.5,28,8.2,28,7.6C28,7.7,28,7.7,28,7.6z"/>
	<path class="st1" d="M39.8,7.6c0-0.5-0.4-0.9-0.9-0.9h-7.6c-0.3,0-0.6,0.2-0.8,0.5c-0.1,0.1-0.1,0.3-0.1,0.4c0,0.5,0.4,0.9,0.9,0.9
		h7.6C39.4,8.5,39.8,8.1,39.8,7.6z"/>
	<path class="st1" d="M51.5,7.6c0-0.5-0.4-0.9-0.9-0.9h-7.6c-0.3,0-0.6,0.2-0.8,0.4c-0.1,0.1-0.1,0.3-0.1,0.4c0,0.5,0.4,0.9,0.9,0.9
		c0,0,0,0,0,0h7.6C51.1,8.5,51.5,8.1,51.5,7.6z"/>
	<path class="st1" d="M31,50.1c0-0.5-0.4-0.9-0.9-0.9h-7.6c-0.3,0-0.6,0.2-0.8,0.4c-0.1,0.1-0.1,0.3-0.1,0.4c0,0.5,0.4,0.9,0.9,0.9
		c0,0,0,0,0,0h7.6C30.6,51,31,50.6,31,50.1C31,50.1,31,50.1,31,50.1z"/>
</g>
</svg>
