<svg id="Layer_1" data-name="Layer 1" xmlns="http://www.w3.org/2000/svg" viewBox="0 0 69.2 69.3"><defs><style>.cls-1{fill:#345466;}</style></defs><title>Artboard 1</title><g id="g715"><path id="path717" class="cls-1" d="M46.27,24a1,1,0,0,1,0-2,1,1,0,1,1,0,2"/></g><g id="g719"><path id="path721" class="cls-1" d="M50.21,24a1,1,0,1,1,1-1,1,1,0,0,1-1,1"/></g><g id="g723"><path id="path725" class="cls-1" d="M42.34,24a1,1,0,1,1,1-1,1,1,0,0,1-1,1"/></g><g id="g727"><g id="path729"><path class="cls-1" d="M64.08,45.64a11.47,11.47,0,0,1-7.27-2.58,22.48,22.48,0,0,1-6.43,2.21,1,1,0,1,1-.35-2A20.85,20.85,0,0,0,56.46,41a1,1,0,0,1,1.16.14,9.47,9.47,0,0,0,6.46,2.53,9.32,9.32,0,0,0,1.29-.09,11.43,11.43,0,0,1-4.19-5.42,1,1,0,0,1,.2-1,20.75,20.75,0,1,0-35.52-18,1,1,0,1,1-1.95-.36A22.73,22.73,0,1,1,63.26,38a9.56,9.56,0,0,0,5.12,5,1,1,0,0,1,.62.92,1,1,0,0,1-.62.92A11.5,11.5,0,0,1,64.08,45.64Z"/></g></g><g id="g747"><g id="path749"><path class="cls-1" d="M23,69.12A22.72,22.72,0,0,1,12.5,66.53a11.4,11.4,0,0,1-7.26,2.59,11.33,11.33,0,0,1-4.31-.84,1,1,0,0,1,0-1.83,9.52,9.52,0,0,0,5.12-5,22.74,22.74,0,1,1,17,7.63ZM12.37,64.34a1,1,0,0,1,.49.13A20.78,20.78,0,1,0,7.93,60.6a1,1,0,0,1,.21,1A11.54,11.54,0,0,1,4,67.05a9.11,9.11,0,0,0,1.29.09A9.45,9.45,0,0,0,11.7,64.6,1,1,0,0,1,12.37,64.34Z"/></g></g><path class="cls-1" d="M11.6,48.7l-.51,1.82H9.31l2.86-8.74H13.7l2.81,8.74H14.73l-.51-1.82Zm2.23-1.44-.9-3.21L12,47.26Z"/><path class="cls-1" d="M19.75,41.78h2.93a5.22,5.22,0,0,1,1.3.15,2.77,2.77,0,0,1,1,.44,1.91,1.91,0,0,1,.64.74,2.36,2.36,0,0,1,.22,1.06,2,2,0,0,1-.14.75,1.79,1.79,0,0,1-.4.62,2.13,2.13,0,0,1-.32.26,1.74,1.74,0,0,1-.41.2h0a2,2,0,0,1,.69.31,1.76,1.76,0,0,1,.43.43,1.87,1.87,0,0,1,.27.57,2.86,2.86,0,0,1-.13,1.75,2.14,2.14,0,0,1-.62.8,2.74,2.74,0,0,1-1,.49,4.72,4.72,0,0,1-1.3.16H19.75Zm2.94,3.67a2.29,2.29,0,0,0,.68-.09,1.22,1.22,0,0,0,.48-.26,1,1,0,0,0,.23-.34,1.25,1.25,0,0,0,.08-.45,1.31,1.31,0,0,0-.07-.46.93.93,0,0,0-.21-.33,1.12,1.12,0,0,0-.48-.27,2.5,2.5,0,0,0-.71-.09H21.44v2.29Zm-1.25,3.71h1.5a2.1,2.1,0,0,0,.59-.08,1.52,1.52,0,0,0,.44-.23,1.24,1.24,0,0,0,.29-.39,1.36,1.36,0,0,0,.1-.51,1.74,1.74,0,0,0-.08-.53,1,1,0,0,0-.66-.65,1.81,1.81,0,0,0-.61-.1H21.44Z"/><path class="cls-1" d="M35.37,49a2.61,2.61,0,0,1-.65.9,2.85,2.85,0,0,1-1,.58,3.81,3.81,0,0,1-1.25.2,3.55,3.55,0,0,1-1-.14,2.87,2.87,0,0,1-.82-.41,2.79,2.79,0,0,1-.6-.59,3.85,3.85,0,0,1-.44-.77,5,5,0,0,1-.27-.92,6.18,6.18,0,0,1-.09-1.07V45.57a6.33,6.33,0,0,1,.08-1,4,4,0,0,1,.26-.89,3.1,3.1,0,0,1,.5-.89,3.17,3.17,0,0,1,.71-.66,2.77,2.77,0,0,1,.78-.35,3.26,3.26,0,0,1,.9-.12,4,4,0,0,1,1.29.2,2.76,2.76,0,0,1,1,.58,2.89,2.89,0,0,1,.63.93,4.11,4.11,0,0,1,.29,1.23H34a2.61,2.61,0,0,0-.11-.68,1.34,1.34,0,0,0-.27-.5,1.29,1.29,0,0,0-.45-.29,2,2,0,0,0-.64-.1,1.36,1.36,0,0,0-.36,0,1.12,1.12,0,0,0-.32.12,1.36,1.36,0,0,0-.42.41,2.7,2.7,0,0,0-.27.62,3.68,3.68,0,0,0-.11.61,5.39,5.39,0,0,0,0,.72v1.19a6.41,6.41,0,0,0,.06.93,3.46,3.46,0,0,0,.17.72,1.88,1.88,0,0,0,.21.37,1,1,0,0,0,.26.27,1.16,1.16,0,0,0,.37.18,2,2,0,0,0,.44.05,1.9,1.9,0,0,0,.6-.08,1.26,1.26,0,0,0,.45-.26,1.29,1.29,0,0,0,.29-.47,2.1,2.1,0,0,0,.13-.67h1.69A3.15,3.15,0,0,1,35.37,49Z"/></svg>