<?xml version="1.0" encoding="utf-8"?>
<!-- Generator: Adobe Illustrator 27.4.0, SVG Export Plug-In . SVG Version: 6.00 Build 0)  -->
<svg version="1.1" id="Layer_1" xmlns="http://www.w3.org/2000/svg" xmlns:xlink="http://www.w3.org/1999/xlink" x="0px" y="0px"
	 viewBox="0 0 71.5 46" style="enable-background:new 0 0 71.5 46;" xml:space="preserve">
<style type="text/css">
	.st0{fill:#345466;}
	.st1{fill:none;stroke:#345466;stroke-width:1.75;stroke-miterlimit:10;}
</style>
<g>
	<path class="st0" d="M10,20c5.5,0,10-4.5,10-10S15.5,0,10,0S0,4.5,0,10S4.5,20,10,20z M10,1.7c4.6,0,8.3,3.7,8.3,8.3
		s-3.7,8.3-8.3,8.3S1.7,14.6,1.7,10c0,0,0,0,0,0C1.7,5.4,5.4,1.7,10,1.7z"/>
	<path class="st0" d="M10,45.7c5.5,0,10-4.5,10-10s-4.5-10-10-10s-10,4.5-10,10S4.5,45.7,10,45.7z M10,27.4c4.6,0,8.3,3.7,8.3,8.3
		S14.6,44,10,44s-8.3-3.7-8.3-8.3c0,0,0,0,0,0C1.7,31.1,5.4,27.4,10,27.4z"/>
	<path class="st0" d="M35.8,45.7c5.5,0,10-4.5,10-10s-4.5-10-10-10s-10,4.5-10,10S30.2,45.7,35.8,45.7z M35.8,27.4
		c4.6,0,8.3,3.7,8.3,8.3S40.3,44,35.8,44s-8.3-3.7-8.3-8.3c0,0,0,0,0,0C27.5,31.1,31.2,27.4,35.8,27.4z"/>
	<path class="st0" d="M61.5,20.3c5.5,0,10-4.5,10-10s-4.5-10-10-10s-10,4.5-10,10S55.9,20.3,61.5,20.3z M61.5,2
		c4.6,0,8.3,3.7,8.3,8.3s-3.7,8.3-8.3,8.3s-8.3-3.7-8.3-8.3C53.2,5.7,56.9,2,61.5,2z"/>
	<path class="st0" d="M61.5,46c5.5,0,10-4.5,10-10s-4.5-10-10-10s-10,4.5-10,10S55.9,46,61.5,46z M61.5,27.7c4.6,0,8.3,3.7,8.3,8.3
		s-3.7,8.3-8.3,8.3s-8.3-3.7-8.3-8.3C53.2,31.4,56.9,27.7,61.5,27.7z"/>
	<path class="st0" d="M35.8,20c5.5,0,10-4.5,10-10s-4.5-10-10-10s-10,4.5-10,10S30.2,20,35.8,20z M35.8,1.7c4.6,0,8.3,3.7,8.3,8.3
		s-3.7,8.3-8.3,8.3s-8.3-3.7-8.3-8.3c0,0,0,0,0,0C27.5,5.4,31.2,1.7,35.8,1.7z"/>
	<line class="st1" x1="28.1" y1="15.3" x2="41.1" y2="2.5"/>
	<line class="st1" x1="31.4" y1="17.5" x2="43.4" y2="5.6"/>
	<line class="st1" x1="34.9" y1="19" x2="44.8" y2="9.2"/>
	<line class="st1" x1="26.7" y1="11.4" x2="37.2" y2="1"/>
</g>
</svg>
