<?xml version="1.0" encoding="utf-8"?>
<!-- Generator: Adobe Illustrator 27.4.0, SVG Export Plug-In . SVG Version: 6.00 Build 0)  -->
<svg version="1.1" id="Layer_1" xmlns="http://www.w3.org/2000/svg" xmlns:xlink="http://www.w3.org/1999/xlink" x="0px" y="0px"
	 viewBox="0 0 71 71" style="enable-background:new 0 0 71 71;" xml:space="preserve">
<style type="text/css">
	.st0{fill:#345466;}
</style>
<g>
	<path class="st0" d="M62.8,0H8.2C3.7,0,0,3.7,0,8.2v54.5C0,67.3,3.7,71,8.2,71h54.6c4.5,0,8.2-3.7,8.2-8.2V8.2
		C71,3.7,67.3,0,62.8,0z M68.8,62.8c0,3.3-2.7,6-6,6H8.2c-3.3,0-6-2.7-6-6V8.2c0-3.3,2.7-6,6-6h54.6c3.3,0,6,2.7,6,6V62.8z"/>
	<path class="st0" d="M20.1,33c7.2,0,13-5.8,13-13s-5.8-13-13-13s-13,5.8-13,13S12.9,33,20.1,33z M20.1,9.3
		c5.9,0,10.8,4.8,10.8,10.8S26,30.8,20.1,30.8S9.3,26,9.3,20.1C9.3,14.1,14.2,9.3,20.1,9.3z"/>
	<path class="st0" d="M61.7,14.4l-6.2-0.9l-2.8-5.6c-0.6-1.3-2.2-1.8-3.4-1.2c-0.5,0.3-0.9,0.7-1.2,1.2l-2.8,5.6l-6.2,0.9
		c-1.4,0.2-2.4,1.5-2.2,2.9c0.1,0.5,0.3,1.1,0.7,1.4l4.5,4.4l-1.1,6.2c-0.2,1,0.2,1.9,1,2.5c0.8,0.6,1.9,0.7,2.7,0.2l5.6-2.9L56,32
		c1.3,0.7,2.8,0.2,3.5-1.1c0.3-0.5,0.4-1.1,0.3-1.6l-1-6.2l4.5-4.4c1-1,1-2.6,0-3.6C62.8,14.7,62.3,14.4,61.7,14.4L61.7,14.4z
		 M61.6,17.2L56.7,22c-0.3,0.3-0.4,0.6-0.3,1l1.2,6.8c0,0.1,0,0.3-0.1,0.3c-0.1,0.1-0.3,0.1-0.4,0L51,26.9c-0.3-0.2-0.7-0.2-1,0
		l-6.1,3.2c-0.1,0.1-0.3,0.1-0.4,0c-0.1-0.1-0.2-0.2-0.1-0.3l1.2-6.8c0.1-0.4-0.1-0.7-0.3-1l-4.9-4.8c-0.1-0.1-0.1-0.2-0.1-0.4
		c0-0.1,0.2-0.2,0.3-0.2l6.8-1c0.4-0.1,0.7-0.3,0.8-0.6l3-6.2c0.1-0.2,0.3-0.2,0.5-0.2c0.1,0,0.1,0.1,0.2,0.2l3,6.2
		c0.2,0.3,0.5,0.6,0.8,0.6l6.8,1c0.1,0,0.2,0.1,0.3,0.2C61.7,16.9,61.7,17.1,61.6,17.2z"/>
	<path class="st0" d="M50.5,35.9c-0.4-0.4-1.1-0.4-1.6,0c0,0,0,0,0,0l-13,13c-0.4,0.4-0.4,1.1,0,1.6l13,13c0.2,0.2,0.5,0.3,0.8,0.3
		c0.3,0,0.6-0.1,0.8-0.3l13-13c0.4-0.4,0.4-1.1,0-1.6c0,0,0,0,0,0L50.5,35.9z M49.7,61.2L38.3,49.7l11.5-11.5l11.5,11.5L49.7,61.2z"
		/>
	<path class="st0" d="M21.4,38.5c-0.3-0.5-1-0.7-1.5-0.4c-0.2,0.1-0.3,0.2-0.4,0.4L6.5,61c-0.2,0.3-0.2,0.8,0,1.1
		c0.2,0.4,0.6,0.6,1,0.6h26c0.4,0,0.8-0.2,1-0.6c0.2-0.3,0.2-0.8,0-1.1L21.4,38.5z M9.4,60.5l11-19.2l11.1,19.2L9.4,60.5z"/>
	<path class="st0" d="M55.4,17.7l-2.7-0.4l-1.2-2.5c-0.3-0.6-0.9-0.8-1.5-0.5s-0.8,0.9-0.5,1.5l1.5,3c0.2,0.3,0.5,0.6,0.8,0.6
		l3.3,0.5h0.2c0.6,0,1.1-0.4,1.2-1C56.5,18.3,56,17.8,55.4,17.7L55.4,17.7z"/>
	<path class="st0" d="M20.1,14.1c3.3,0,6,2.7,6,6c0,0.6,0.5,1.1,1.1,1.1s1.1-0.5,1.1-1.1l0,0c0-4.5-3.7-8.2-8.2-8.2
		c-0.6,0.1-1.1,0.6-1,1.2C19.1,13.6,19.6,14,20.1,14.1z"/>
	<path class="st0" d="M49,43c-0.4,0.4-0.4,1.1,0,1.6c0,0,0,0,0,0l5.9,5.9c0.2,0.2,0.5,0.3,0.8,0.3c0.3,0,0.6-0.1,0.8-0.3
		c0.4-0.4,0.4-1.1,0-1.6L50.5,43C50.1,42.6,49.4,42.6,49,43z"/>
	<path class="st0" d="M19.9,47.6c-0.5,0.3-0.7,1-0.4,1.5c0,0,0,0,0,0l4.7,8.2c0.2,0.4,0.6,0.6,1,0.6c0.2,0,0.4,0,0.6-0.1
		c0.5-0.3,0.7-1,0.4-1.5c0,0,0,0,0,0L21.4,48C21.1,47.4,20.4,47.3,19.9,47.6C19.9,47.6,19.9,47.6,19.9,47.6z"/>
</g>
</svg>
