<?xml version="1.0" encoding="utf-8"?>
<!-- Generator: Adobe Illustrator 27.4.0, SVG Export Plug-In . SVG Version: 6.00 Build 0)  -->
<svg version="1.1" id="Layer_1" xmlns="http://www.w3.org/2000/svg" xmlns:xlink="http://www.w3.org/1999/xlink" x="0px" y="0px"
	 viewBox="0 0 71 71" style="enable-background:new 0 0 71 71;" xml:space="preserve">
<style type="text/css">
	.st0{fill:#345466;}
</style>
<g>
	<path class="st0" d="M62.8,0H8.2C3.7,0,0,3.7,0,8.2v54.5C0,67.3,3.7,71,8.2,71h54.5c4.5,0,8.2-3.7,8.2-8.2V8.2
		C71,3.7,67.3,0,62.8,0z M68.8,62.8c0,3.3-2.7,6-6,6H8.2c-3.3,0-6-2.7-6-6V8.2c0-3.3,2.7-6,6-6h54.5c3.3,0,6,2.7,6,6L68.8,62.8z"/>
	<path class="st0" d="M26.3,16.7c0.6,0,1,0.4,1,1V20c0,0.6-0.4,1-1,1h-16c-0.6,0-1-0.4-1-1v-2.3c0-0.6,0.4-1,1-1H26.3z M20.6,26.9
		c0,0.6-0.4,1-1,1h-2.5c-0.6,0-1-0.4-1-1v-16c0-0.6,0.4-1,1-1h2.5c0.6,0,1,0.4,1,1V26.9z"/>
	<path class="st0" d="M60.8,16.7c0.6,0,1,0.4,1,1V20c0,0.6-0.4,1-1,1h-16c-0.6,0-1-0.4-1-1v-2.3c0-0.6,0.4-1,1-1H60.8z"/>
	<path class="st0" d="M43.8,46.2c0-0.6,0.4-1,1-1h16c0.6,0,1,0.4,1,1v2.3c0,0.6-0.4,1-1,1h-16c-0.6,0-1-0.4-1-1V46.2z M43.8,56.9
		c0-0.6,0.4-1,1-1h16c0.6,0,1,0.4,1,1v2.3c0,0.6-0.4,1-1,1h-16c-0.6,0-1-0.4-1-1V56.9z"/>
	<rect x="34.4" y="1.4" class="st0" width="2.2" height="68.6"/>
	<rect x="1.2" y="34.4" class="st0" width="68.6" height="2.2"/>
	<path class="st0" d="M25.5,56.9c0.4,0.4,0.4,1,0,1.4c0,0,0,0,0,0l-1.6,1.6c-0.4,0.4-1,0.4-1.4,0c0,0,0,0,0,0L11.1,48.6
		c-0.4-0.4-0.4-1,0-1.4l1.6-1.6c0.4-0.4,1-0.4,1.4,0L25.5,56.9z M14.3,60c-0.4,0.4-1,0.4-1.4,0l-1.8-1.8c-0.4-0.4-0.4-1,0-1.4
		c0,0,0,0,0,0l11.3-11.3c0.4-0.4,1-0.4,1.4,0c0,0,0,0,0,0l1.8,1.8c0.4,0.4,0.4,1,0,1.4c0,0,0,0,0,0L14.3,60z"/>
</g>
</svg>
