<?xml version="1.0" encoding="utf-8"?>
<!-- Generator: Adobe Illustrator 27.4.0, SVG Export Plug-In . SVG Version: 6.00 Build 0)  -->
<svg version="1.1" id="Layer_1" xmlns="http://www.w3.org/2000/svg" xmlns:xlink="http://www.w3.org/1999/xlink" x="0px" y="0px"
	 viewBox="0 0 83.7 47" style="enable-background:new 0 0 83.7 47;" xml:space="preserve">
<style type="text/css">
	.st0{fill:#345466;}
</style>
<g>
	<path class="st0" d="M75.8,11.8v-1.4c0-3.6-2.9-6.5-6.5-6.5l0,0h-7.6c-3.6-4.5-10.1-5.2-14.6-1.7c-0.6,0.5-1.2,1.1-1.7,1.7h-7.4
		c-3.6-4.5-10.1-5.2-14.6-1.7c-0.6,0.5-1.2,1.1-1.7,1.7h-7.5c-3.6,0-6.5,2.9-6.5,6.5l0,0v1.4c-8.7,6.5-10.5,18.7-4,27.4
		c6.5,8.7,18.7,10.5,27.4,4c5.5-4.1,8.5-10.9,7.8-17.8c1.8,0.9,3.8,0.9,5.6,0c-1.1,10.7,6.7,20.4,17.4,21.5s20.4-6.7,21.5-17.4
		C84.3,22.6,81.4,15.9,75.8,11.8z M53.7,2.5c1.6,0,3.3,0.5,4.6,1.5h-9.2C50.4,3,52,2.5,53.7,2.5z M30.1,2.5c1.6,0,3.3,0.5,4.6,1.5
		h-9.2C26.8,3,28.4,2.5,30.1,2.5z M19.6,44.5c-9.5,0-17.1-7.7-17.1-17.1c0-9.5,7.7-17.1,17.1-17.1c9.5,0,17.1,7.7,17.1,17.1
		c0,0,0,0,0,0C36.7,36.9,29,44.5,19.6,44.5z M37.9,19.5c0-2.2,1.8-4,4-4s4,1.8,4,4s-1.8,4-4,4C39.7,23.5,37.9,21.8,37.9,19.5
		L37.9,19.5z M41.9,13.1c-2.5,0-4.8,1.4-5.8,3.7c-5.5-8.5-16.7-11.4-25.7-6.6c0.1-2.1,1.9-3.8,4-3.8h55c2.1,0,3.9,1.7,4,3.8
		c-9-4.8-20.1-1.9-25.7,6.6C46.6,14.5,44.3,13.1,41.9,13.1L41.9,13.1z M64.2,44.5c-9.5,0-17.1-7.7-17.1-17.1
		c0-9.5,7.7-17.1,17.1-17.1c9.5,0,17.1,7.7,17.1,17.1c0,0,0,0,0,0C81.3,36.9,73.6,44.5,64.2,44.5z"/>
	<path class="st0" d="M64.2,13.1c-7.9,0-14.3,6.4-14.3,14.3c0,7.9,6.4,14.3,14.3,14.3s14.3-6.4,14.3-14.3
		C78.5,19.5,72.1,13.1,64.2,13.1z M64.2,39.3c-6.6,0-11.9-5.3-11.9-11.9s5.3-11.9,11.9-11.9S76,20.8,76,27.4
		C76.1,34,70.8,39.3,64.2,39.3C64.2,39.3,64.2,39.3,64.2,39.3L64.2,39.3z"/>
	<path class="st0" d="M19.6,13.1c-7.9,0-14.3,6.4-14.3,14.3c0,7.9,6.4,14.3,14.3,14.3c7.9,0,14.3-6.4,14.3-14.3
		C33.9,19.5,27.5,13.1,19.6,13.1C19.6,13.1,19.6,13.1,19.6,13.1z M19.6,39.3c-6.6,0-11.9-5.3-11.9-11.9S13,15.5,19.6,15.5
		s11.9,5.3,11.9,11.9c0,0,0,0,0,0C31.5,34,26.1,39.3,19.6,39.3L19.6,39.3z"/>
	<path class="st0" d="M64.2,18.3c-0.7,0-1.2,0.5-1.2,1.2c0,0.7,0.5,1.2,1.2,1.2c0,0,0,0,0,0c3.7,0,6.6,3,6.6,6.6
		c0,0.7,0.6,1.2,1.2,1.2c0.7,0,1.2-0.6,1.2-1.2C73.3,22.4,69.2,18.3,64.2,18.3z"/>
	<path class="st0" d="M19.6,18.3c-0.7,0-1.2,0.5-1.2,1.2c0,0.7,0.5,1.2,1.2,1.2c0,0,0,0,0,0c3.7,0,6.6,3,6.6,6.6
		c0,0.7,0.5,1.2,1.2,1.2c0.7,0,1.2-0.5,1.2-1.2c0,0,0,0,0,0C28.7,22.4,24.6,18.3,19.6,18.3z"/>
</g>
</svg>
