<?xml version="1.0" encoding="utf-8"?>
<!-- Generator: Adobe Illustrator 27.4.0, SVG Export Plug-In . SVG Version: 6.00 Build 0)  -->
<svg version="1.1" id="Layer_1" xmlns="http://www.w3.org/2000/svg" xmlns:xlink="http://www.w3.org/1999/xlink" x="0px" y="0px"
	 viewBox="0 0 62 61.9" style="enable-background:new 0 0 62 61.9;" xml:space="preserve">
<style type="text/css">
	.st0{fill:#345466;}
</style>
<g>
	<path class="st0" d="M38.2,14c0.7,0,1.2-0.5,1.2-1.2s-0.5-1.2-1.2-1.2c-0.7,0-1.2,0.5-1.2,1.2c0,0,0,0,0,0C37,13.5,37.6,14,38.2,14
		z"/>
	<path class="st0" d="M41.7,16.3c2.7,2,4.9,4.7,6.2,7.9c0.3,0.6,1,0.9,1.6,0.6c0.6-0.3,0.8-0.9,0.6-1.5c-1.5-3.6-3.9-6.7-7-8.9
		c-0.6-0.4-1.3-0.3-1.7,0.3C40.9,15.2,41.1,16,41.7,16.3L41.7,16.3z"/>
	<path class="st0" d="M60.8,29.8h-4.4C55.7,16.7,45.3,6.2,32.2,5.6V1.2C32.2,0.5,31.7,0,31,0c-0.7,0-1.2,0.5-1.2,1.2v4.4
		C16.7,6.2,6.3,16.7,5.6,29.8H1.2C0.5,29.8,0,30.3,0,31c0,0.7,0.5,1.2,1.2,1.2h4.4c0.6,13.1,11.1,23.5,24.2,24.2v4.4
		c0,0.7,0.5,1.2,1.2,1.2c0.7,0,1.2-0.5,1.2-1.2v-4.4c13.1-0.6,23.5-11.1,24.2-24.2h4.4c0.7,0,1.2-0.5,1.2-1.2
		C62,30.3,61.4,29.8,60.8,29.8L60.8,29.8z M53.9,29.8h-8.5c-0.6-7.1-6.2-12.7-13.3-13.3V8C43.9,8.6,53.3,18,53.9,29.8z M40.7,32.2
		H43c-0.6,5.7-5.1,10.2-10.8,10.8v-2.4c0-0.7-0.5-1.2-1.2-1.2c-0.7,0-1.2,0.5-1.2,1.2V43c-5.7-0.6-10.2-5.1-10.8-10.8h2.4
		c0.7,0,1.2-0.5,1.2-1.2c0-0.7-0.5-1.2-1.2-1.2h-2.4c0.6-5.7,5.1-10.3,10.8-10.9v2.4c0,0.7,0.5,1.2,1.2,1.2c0.7,0,1.2-0.5,1.2-1.2
		v-2.4C37.9,19.5,42.4,24,43,29.8h-2.4c-0.7,0-1.2,0.5-1.2,1.2C39.5,31.6,40,32.2,40.7,32.2L40.7,32.2z M29.8,8v8.5
		c-7.1,0.6-12.7,6.2-13.3,13.3H8C8.6,18,18,8.6,29.8,8z M8,32.2h8.5c0.6,7.1,6.2,12.6,13.3,13.2v8.5C18,53.3,8.7,43.9,8,32.2z
		 M32.2,53.9v-8.5c7.1-0.6,12.6-6.2,13.3-13.2h8.5C53.3,43.9,43.9,53.3,32.2,53.9z"/>
	<path class="st0" d="M35.8,29.8h-3.6v-3.6c0-0.7-0.5-1.2-1.2-1.2c-0.7,0-1.2,0.5-1.2,1.2v3.6h-3.6c-0.7,0-1.2,0.5-1.2,1.2
		c0,0.7,0.5,1.2,1.2,1.2c0,0,0,0,0,0h3.6v3.6c0,0.7,0.5,1.2,1.2,1.2c0.7,0,1.2-0.5,1.2-1.2v-3.6h3.6c0.7,0,1.2-0.5,1.2-1.2
		C37,30.3,36.5,29.8,35.8,29.8C35.8,29.8,35.8,29.8,35.8,29.8L35.8,29.8z"/>
</g>
</svg>
