<?xml version="1.0" encoding="utf-8"?>
<!-- Generator: Adobe Illustrator 27.4.0, SVG Export Plug-In . SVG Version: 6.00 Build 0)  -->
<svg version="1.1" id="Layer_1" xmlns="http://www.w3.org/2000/svg" xmlns:xlink="http://www.w3.org/1999/xlink" x="0px" y="0px"
	 viewBox="0 0 57.6 61.8" style="enable-background:new 0 0 57.6 61.8;" xml:space="preserve">
<style type="text/css">
	.st0{fill:#345466;}
</style>
<g>
	<path class="st0" d="M40.3,61.8h-3.2c-0.5,0-0.9-0.4-0.9-0.9c0-0.5,0.4-0.9,0.9-0.9h2.3V45.5c0-0.4,0.3-0.7,0.7-0.8
		c0.1,0,9-2.4,14.6-7.2c0.7-0.6,1.1-1.4,1.1-2.3c0-0.9-0.3-1.7-1-2.3c-1.1-1.1-2.9-1.1-4.1-0.2c-3.7,3-11.5,8.1-21.5,8.3
		c-0.3,0-0.7,0-1,0c-10-0.2-17.7-5.3-21.5-8.3c-1.3-1.1-3.3-0.8-4.3,0.5c-0.4,0.5-0.7,1.2-0.7,1.9c0,0.9,0.4,1.8,1.1,2.4
		c5.7,4.8,14.5,7.2,14.6,7.2c0.4,0.1,0.7,0.5,0.7,0.8V60h4.1c0.5,0,0.9,0.4,0.9,0.9c0,0.5-0.4,0.9-0.9,0.9h-4.9
		c-0.5,0-0.9-0.4-0.9-0.9V46.2c-2.2-0.7-9.5-3.1-14.6-7.4C0.6,37.9,0,36.5,0,35.1c0-2.7,2.2-4.9,4.9-4.9c1.1,0,2.2,0.4,3,1.1
		c3.6,2.9,11,7.7,20.5,7.9h0.8c9.5-0.2,16.9-5,20.5-7.9c2.1-1.7,5.2-1.4,6.9,0.7c1.7,2.1,1.4,5.2-0.7,6.9
		c-5.1,4.3-12.4,6.7-14.6,7.4v14.7C41.2,61.4,40.8,61.8,40.3,61.8z"/>
	<path class="st0" d="M30.9,61.8h-2.5c-0.5,0-0.9-0.4-0.9-0.9c0-0.5,0.4-0.9,0.9-0.9H31c0.5,0,0.9,0.4,0.9,0.9
		C31.8,61.4,31.4,61.8,30.9,61.8L30.9,61.8z"/>
	<path class="st0" d="M28.8,40.9c-5.4,0-9.8-4.4-9.8-9.8c0-5.4,4.4-9.8,9.8-9.8c5.4,0,9.8,4.4,9.8,9.8l0,0
		C38.5,36.6,34.2,40.9,28.8,40.9z M28.8,23.2c-4.4,0-8,3.6-8,8s3.6,8,8,8s8-3.6,8-8S33.2,23.2,28.8,23.2z"/>
	<path class="st0" d="M47.8,18.7c-2.8,0-5.1-2.3-5.1-5.1s2.3-5.1,5.1-5.1s5.1,2.3,5.1,5.1l0,0C52.9,16.4,50.6,18.7,47.8,18.7z
		 M47.8,10.2c-1.9,0-3.4,1.5-3.4,3.3c0,1.9,1.5,3.4,3.3,3.4c1.9,0,3.4-1.5,3.4-3.3c0,0,0,0,0,0l0,0C51.1,11.7,49.7,10.2,47.8,10.2z"
		/>
	<path class="st0" d="M9.7,18.7c-2.8,0-5.1-2.3-5.1-5.1s2.3-5.1,5.1-5.1s5.1,2.3,5.1,5.1S12.6,18.7,9.7,18.7L9.7,18.7z M9.7,10.2
		c-1.9,0-3.4,1.5-3.4,3.3s1.5,3.4,3.3,3.4c1.9,0,3.4-1.5,3.4-3.3c0,0,0,0,0,0C13.1,11.7,11.6,10.2,9.7,10.2L9.7,10.2z"/>
	<path class="st0" d="M28.8,10.2c-2.8,0-5.1-2.3-5.1-5.1S25.9,0,28.8,0s5.1,2.3,5.1,5.1l0,0C33.9,7.9,31.6,10.2,28.8,10.2L28.8,10.2
		z M28.8,1.8c-1.9,0-3.3,1.5-3.3,3.3s1.5,3.4,3.3,3.4c1.9,0,3.3-1.5,3.3-3.3c0,0,0,0,0,0l0,0C32.1,3.3,30.6,1.8,28.8,1.8z"/>
</g>
</svg>
