<?xml version="1.0" encoding="utf-8"?>
<!-- Generator: Adobe Illustrator 27.4.0, SVG Export Plug-In . SVG Version: 6.00 Build 0)  -->
<svg version="1.1" id="Layer_1" xmlns="http://www.w3.org/2000/svg" xmlns:xlink="http://www.w3.org/1999/xlink" x="0px" y="0px"
	 viewBox="0 0 68 72.7" style="enable-background:new 0 0 68 72.7;" xml:space="preserve">
<style type="text/css">
	.st0{fill:#345466;}
</style>
<g>
	<path class="st0" d="M39.9,72.7c8.8-0.3,16.9-4.5,22.3-11.5c0.7-0.9,0.5-2.1-0.3-2.8c0,0-0.1-0.1-0.1-0.1L41,43.6
		c-0.9-0.7-2.1-0.5-2.8,0.4c-0.3,0.4-0.4,0.8-0.4,1.3v25.4c0,1.1,0.9,2,2,2C39.8,72.7,39.9,72.7,39.9,72.7z M39.9,52.4l4.1-4.1
		l2,1.4l-6.1,6.1L39.9,52.4L39.9,52.4z M39.9,58.9l7.9-7.9l2,1.4l-9.9,9.9L39.9,58.9z M53.6,55.2L39.9,68.8v-3.5l11.6-11.6
		L53.6,55.2z M57.4,57.8l-11.9,12c-1.4,0.3-2.8,0.6-4.2,0.7l14.1-14.1L57.4,57.8z M50,68.2l9.1-9.1l1.3,0.9
		C57.7,63.5,54.1,66.3,50,68.2L50,68.2z M42.3,47.1l-2.3,2.3v-4L42.3,47.1z"/>
	<path class="st0" d="M65.6,30.1c0.1,0.6,0.7,1,1.2,0.9c0.5-0.1,0.9-0.6,0.9-1.1C65.5,11.2,48.5-2,29.9,0.3
		C11.2,2.5-2,19.5,0.3,38.1C2.3,54.8,16.2,67.5,33,68H33c0.5,0,1-0.2,1.4-0.6c0.4-0.4,0.6-0.9,0.6-1.5V53.4c0.1-0.6-0.4-1.1-1-1.2
		c-0.6-0.1-1.1,0.4-1.2,1c0,0.1,0,0.1,0,0.2v12.5C15.4,65.3,1.5,50.6,2.1,33c0.5-16.8,14-30.4,30.9-30.9v46.2c0.1,0.6,0.6,1,1.2,1
		c0.5,0,0.9-0.5,1-1V36.1l24.4,17.3c0.9,0.7,2.1,0.5,2.8-0.4c0,0,0.1-0.1,0.1-0.1c3.5-5.3,5.5-11.5,5.7-17.8
		c-0.1-0.6-0.7-0.9-1.3-0.8c-0.4,0.1-0.7,0.4-0.8,0.8c-0.2,5.9-2,11.7-5.2,16.6L35.1,33.5V2.2C50.8,2.7,63.7,14.6,65.6,30.1z"/>
</g>
</svg>
