<?xml version="1.0" encoding="utf-8"?>
<!-- Generator: Adobe Illustrator 27.4.0, SVG Export Plug-In . SVG Version: 6.00 Build 0)  -->
<svg version="1.1" id="Layer_1" xmlns="http://www.w3.org/2000/svg" xmlns:xlink="http://www.w3.org/1999/xlink" x="0px" y="0px"
	 viewBox="0 0 79.2 59.6" style="enable-background:new 0 0 79.2 59.6;" xml:space="preserve">
<style type="text/css">
	.st0{fill:#345466;}
</style>
<g>
	<path class="st0" d="M6,13.2h12.2c0.6,0,1.2-0.5,1.2-1.2c0-0.6-0.5-1.2-1.2-1.2H6c-0.6,0-1.2,0.5-1.2,1.2C4.9,12.7,5.4,13.2,6,13.2
		C6,13.2,6,13.2,6,13.2z"/>
	<path class="st0" d="M17.8,18.8H13c-0.6,0-1.2,0.5-1.2,1.2c0,0.6,0.5,1.2,1.2,1.2h4.8c0.6,0,1.2-0.5,1.2-1.2
		C19,19.3,18.5,18.8,17.8,18.8z"/>
	<path class="st0" d="M1.2,26.9H13c0.6,0,1.2-0.5,1.2-1.2c0-0.6-0.5-1.2-1.2-1.2c0,0,0,0,0,0H1.2c-0.6,0-1.2,0.5-1.2,1.2
		C0,26.4,0.5,26.9,1.2,26.9C1.2,26.9,1.2,26.9,1.2,26.9z"/>
	<path class="st0" d="M19.4,47.4c0-0.6-0.5-1.2-1.2-1.2c0,0,0,0,0,0H6c-0.6,0-1.2,0.5-1.2,1.2c0,0.6,0.5,1.2,1.2,1.2h12.2
		C18.9,48.6,19.4,48.1,19.4,47.4C19.4,47.5,19.4,47.5,19.4,47.4z"/>
	<path class="st0" d="M17.8,38.4H13c-0.6,0-1.2,0.5-1.2,1.2c0,0.6,0.5,1.2,1.2,1.2h4.8c0.6,0,1.2-0.5,1.2-1.2
		C19,38.9,18.5,38.4,17.8,38.4z"/>
	<path class="st0" d="M14.2,33.8c0-0.6-0.5-1.2-1.2-1.2h0H1.2c-0.6,0-1.2,0.5-1.2,1.2C0,34.5,0.5,35,1.2,35H13
		C13.6,35,14.2,34.5,14.2,33.8z"/>
	<path class="st0" d="M49.5,15.8c0.6,0,1.2-0.5,1.2-1.2v0v-1.8c0-0.6-0.5-1.2-1.2-1.2c-0.6,0-1.2,0.5-1.2,1.2v1.8
		C48.3,15.3,48.8,15.8,49.5,15.8C49.4,15.8,49.4,15.8,49.5,15.8z"/>
	<path class="st0" d="M62.2,17c-0.5-0.4-1.2-0.4-1.7,0l-1.2,1.3c-0.5,0.4-0.5,1.2,0,1.6s1.2,0.5,1.6,0c0,0,0,0,0,0l1.3-1.3
		C62.7,18.2,62.7,17.5,62.2,17z"/>
	<path class="st0" d="M64.6,28.6c-0.6,0-1.2,0.5-1.2,1.2c0,0.6,0.5,1.2,1.2,1.2c0,0,0,0,0,0h1.8c0.6,0,1.2-0.5,1.2-1.2
		c0-0.6-0.5-1.2-1.2-1.2H64.6z"/>
	<path class="st0" d="M61,39.6c-0.4-0.5-1.2-0.5-1.6,0c-0.5,0.4-0.5,1.2,0,1.6c0,0,0,0,0,0l1.2,1.2c0.5,0.5,1.2,0.5,1.7,0
		c0.5-0.5,0.5-1.2,0-1.7l0,0L61,39.6z"/>
	<path class="st0" d="M48.3,44.9v1.8c0,0.6,0.5,1.2,1.2,1.2c0.6,0,1.2-0.5,1.2-1.2c0,0,0,0,0,0v-1.8c0-0.6-0.5-1.2-1.2-1.2
		C48.8,43.7,48.3,44.2,48.3,44.9z"/>
	<path class="st0" d="M37.9,39.6l-1.2,1.2c-0.4,0.5-0.4,1.2,0,1.6c0.4,0.4,1.2,0.4,1.6,0l1.2-1.2c0.5-0.4,0.5-1.2,0-1.6
		C39.2,39.2,38.4,39.1,37.9,39.6C38,39.6,38,39.6,37.9,39.6z"/>
	<path class="st0" d="M32.6,28.6c-0.6,0-1.2,0.5-1.2,1.2c0,0.6,0.5,1.2,1.2,1.2h1.8c0.6,0,1.2-0.5,1.2-1.2c0-0.6-0.5-1.2-1.2-1.2
		H32.6z"/>
	<path class="st0" d="M39.6,18.3L38.3,17c-0.5-0.5-1.2-0.5-1.6,0c-0.5,0.4-0.5,1.2,0,1.6c0,0,0,0,0,0l1.2,1.3c0.4,0.5,1.2,0.5,1.6,0
		C40,19.5,40.1,18.8,39.6,18.3C39.6,18.3,39.6,18.3,39.6,18.3z"/>
	<path class="st0" d="M55.7,29.8c0-0.6-0.5-1.2-1.2-1.2h0h-3.9V20c0-0.6-0.5-1.2-1.2-1.2c-0.6,0-1.2,0.5-1.2,1.2v9.8
		c0,0.6,0.5,1.2,1.1,1.2c0,0,0,0,0,0h5.1C55.2,30.9,55.7,30.4,55.7,29.8C55.7,29.8,55.7,29.8,55.7,29.8z"/>
	<path class="st0" d="M71.5,29.6c0.6,0,1.1-0.6,1.1-1.2c0,0,0,0,0,0C71.7,15.6,60.8,5.9,48,6.7C35.3,7.6,25.6,18.5,26.4,31.3
		C27.2,44,38.2,53.7,50.9,52.9c10.9-0.7,19.8-8.9,21.4-19.6c0.1-0.6-0.3-1.2-1-1.3c-0.6-0.1-1.2,0.3-1.3,1l0,0
		c-1.7,11.4-12.3,19.2-23.7,17.5c-11.4-1.7-19.2-12.3-17.5-23.7S41.1,7.5,52.5,9.2c9.7,1.5,17.1,9.5,17.7,19.3
		C70.3,29.1,70.8,29.6,71.5,29.6C71.4,29.6,71.4,29.6,71.5,29.6z"/>
	<path class="st0" d="M49.5,0c-4,0-8.1,0.8-11.8,2.4H17.2c-0.6,0-1.2,0.5-1.2,1.2c0,0.6,0.5,1.2,1.2,1.2h16.1c-2.2,1.4-4.2,3.1-6,5
		c-0.4,0.5-0.4,1.2,0.1,1.6c0.5,0.4,1.2,0.4,1.6-0.1c10.2-11.2,27.5-12,38.7-1.9s12,27.5,1.9,38.7S42.2,60.2,31,50
		c-9.9-9-11.9-23.9-4.6-35.1c0.3-0.6,0.2-1.3-0.4-1.6c-0.6-0.3-1.3-0.2-1.6,0.4l0,0c-8.9,13.8-4.9,32.2,8.9,41.1c0,0,0,0,0,0h-16
		c-0.6,0-1.2,0.5-1.2,1.2c0,0.6,0.5,1.2,1.2,1.2h20.4c3.7,1.6,7.7,2.4,11.8,2.4c16.4,0,29.8-13.3,29.8-29.8C79.2,13.3,65.9,0,49.5,0
		z"/>
</g>
</svg>
