<?xml version="1.0" encoding="utf-8"?>
<!-- Generator: Adobe Illustrator 27.4.0, SVG Export Plug-In . SVG Version: 6.00 Build 0)  -->
<svg version="1.1" id="Layer_1" xmlns="http://www.w3.org/2000/svg" xmlns:xlink="http://www.w3.org/1999/xlink" x="0px" y="0px"
	 viewBox="0 0 51.2 73.2" style="enable-background:new 0 0 51.2 73.2;" xml:space="preserve">
<style type="text/css">
	.st0{fill:#345466;}
</style>
<g>
	<path class="st0" d="M26.4,57c0-2.2-1.8-3.9-3.9-3.9c-2.2,0-3.9,1.8-3.9,3.9c0,2.2,1.8,3.9,3.9,3.9C24.6,60.9,26.4,59.2,26.4,57z
		 M20.6,57c0-1,0.8-1.8,1.8-1.8s1.8,0.8,1.8,1.8s-0.8,1.8-1.8,1.8C21.4,58.8,20.6,58,20.6,57z"/>
	<path class="st0" d="M50.1,47.3H31.9c-0.6,0-1.1,0.5-1.1,1c0,0,0,0,0,0v2.5c-2.2-2.3-5.3-3.6-8.5-3.6h-0.1c-4.1,0-8,2.2-10.1,5.7
		c-2.4-0.2-4.2-2.2-4.2-4.7V32c0-2.6,2.1-4.7,4.7-4.7h4c2,3.2,6.1,4.5,9.6,2.9l2.1,7.7c0.1,0.5,0.5,0.8,1,0.8c0.1,0,2.9-0.7,2.9-0.7
		l1.6,5.9c0.1,0.5,0.5,0.8,1,0.8c0.1,0,5.8-1.5,5.8-1.5c0.6-0.2,0.9-0.7,0.8-1.3l-1.6-5.9l2.2-0.6c0.6-0.2,0.9-0.7,0.8-1.3l-7-26.3
		c1.1-0.3,1.8-1.4,1.6-2.5c0,0,0,0,0,0l-1-3.6c-0.3-1.1-1.4-1.8-2.5-1.5c0,0,0,0,0,0L19.1,4c-1.1,0.3-1.8,1.4-1.5,2.5c0,0,0,0,0,0.1
		l1,3.6c0.3,1.1,1.5,1.7,2.6,1.4c0,0,0,0,0,0l1.2,4.3c-2.4,0.2-4.5,1.5-5.8,3.5h-4C5.7,19.4,0,25,0,32c0,0,0,0,0,0v5
		c0.1,0.6,0.6,1,1.2,1c0.5,0,0.9-0.5,1-1v-5c0-5.7,4.7-10.4,10.4-10.4h0h3.1c-0.3,1.2-0.3,2.4,0,3.6h-3.1c-3.8,0-6.8,3.1-6.8,6.8
		v16.4c0,3.2,2.2,6,5.3,6.7c-0.4,1.1-0.6,2.3-0.7,3.5c-4.8-1-8.2-5.3-8.3-10.2v-6.7c0.1-0.6-0.4-1.1-1-1.2c-0.6-0.1-1.1,0.4-1.2,1
		c0,0.1,0,0.1,0,0.2v6.7c0,6.1,4.4,11.3,10.5,12.4v3.8H5.1c-1.8,0-3.2,1.4-3.2,3.2v4.3c0,0.6,0.5,1.1,1.1,1.1c0,0,0,0,0,0h38.7
		c0.6,0,1.1-0.5,1.1-1.1c0,0,0,0,0,0v-4.3c0-1.8-1.4-3.2-3.2-3.2h-5.4V61H40c1.1,0,2.1-0.9,2.1-2.1v-3.7h8c0.6,0,1.1-0.5,1.1-1.1
		v-5.7C51.2,47.8,50.7,47.3,50.1,47.3z M35.6,42.2l-1.3-4.9l3.5-0.9l1.3,4.9L35.6,42.2z M19.7,6.1l14.6-3.9l0.9,3.5L20.6,9.6
		L19.7,6.1z M23,18c2.2,0,4.2,1.4,5,3.4c0.2,0.6,0.8,0.8,1.4,0.6c0.6-0.2,0.8-0.8,0.6-1.4c-0.9-2.4-2.9-4.1-5.4-4.6l-1.3-5l10.4-2.8
		l6.8,25.2L30,36.3l-2-7.3c0.9-0.8,1.6-1.7,2-2.8c0.2-0.6-0.1-1.2-0.6-1.4s-1.2,0.1-1.4,0.6c-0.8,2-2.8,3.4-5,3.4
		c-3-0.1-5.3-2.6-5.2-5.6C18,20.4,20.2,18.1,23,18L23,18z M20.5,66.7h19c0.6,0,1.1,0.5,1.1,1.1V71H4v-3.2c0-0.6,0.5-1.1,1.1-1.1
		h10.8c0.6,0,1.1-0.5,1.1-1.1c0-0.6-0.5-1.1-1.1-1.1h-3.2v-5.4c0.1-5.3,4.4-9.6,9.7-9.7c5.3,0,9.6,4.3,9.7,9.7v5.4H20.5
		c-0.6,0-1.1,0.5-1.1,1.1C19.4,66.2,19.9,66.7,20.5,66.7L20.5,66.7z M39.9,58.8h-5.8c0-1.2-0.3-2.4-0.7-3.6h6.5V58.8z M49.1,53.1
		H32.9v-3.6h16.1V53.1z"/>
</g>
</svg>
