<?xml version="1.0" encoding="utf-8"?>
<!-- Generator: Adobe Illustrator 27.4.0, SVG Export Plug-In . SVG Version: 6.00 Build 0)  -->
<svg version="1.1" id="Layer_1" xmlns="http://www.w3.org/2000/svg" xmlns:xlink="http://www.w3.org/1999/xlink" x="0px" y="0px"
	 viewBox="0 0 68.8 59.9" style="enable-background:new 0 0 68.8 59.9;" xml:space="preserve">
<style type="text/css">
	.st0{fill:#345466;}
</style>
<g>
	<path class="st0" d="M68.8,57.6c0-0.1,0-0.2,0-0.3L67,51.2c-0.2-0.5-0.7-0.8-1.2-0.7s-0.8,0.7-0.7,1.2l1,3.7l-15.2-9.2V28.9
		c0-0.4-0.2-0.7-0.5-0.9l-14.9-7.9V3.6L38,6.4c0.4,0.4,1,0.4,1.4,0.1c0.4-0.4,0.4-1,0.1-1.4l-4.3-4.7c-0.4-0.4-1-0.4-1.4-0.1
		c0,0,0,0-0.1,0.1L29.4,5c-0.4,0.4-0.4,1,0.1,1.4c0.4,0.4,1,0.4,1.4-0.1l2.6-2.8v16.5l-15,7.9c-0.3,0.2-0.5,0.5-0.5,0.9v17.4
		L2.7,55.4l1-3.7c0.2-0.5-0.2-1.1-0.7-1.2c-0.5-0.2-1.1,0.2-1.2,0.7L0,57.3c-0.2,0.5,0.1,1.1,0.7,1.2c0.1,0,0.1,0,0.2,0L7,59.9
		c0.6,0.1,1.1-0.2,1.2-0.8C8.4,58.5,8,58,7.4,57.9l-3.7-0.7L19,48.1l15,8c0.3,0.1,0.7,0.1,0.9,0l3.7-1.9c0.5-0.3,0.7-0.9,0.4-1.4
		s-0.9-0.7-1.4-0.4l-2.2,1.2V37.7l13.4-7.1v15.7l-5.7,3c-0.5,0.3-0.7,0.9-0.4,1.4s0.9,0.7,1.4,0.4l5.7-3.1L65,57.2l-3.7,0.8
		c-0.6,0.1-0.9,0.6-0.8,1.2c0.1,0.6,0.6,0.9,1.2,0.8l6.2-1.2C68.4,58.6,68.8,58.2,68.8,57.6z M34.4,36l-6.1-3.2
		c-0.5-0.3-1.1-0.1-1.4,0.4s-0.1,1.1,0.4,1.4l6,3.2v15.8L20,46.3V30.6l2.7,1.4c0.5,0.3,1.1,0.1,1.4-0.4c0.3-0.5,0.1-1.1-0.4-1.4
		l-2.5-1.3l13.3-7.1l13.3,7.1L34.4,36z"/>
</g>
</svg>
