<?xml version="1.0" encoding="utf-8"?>
<!-- Generator: Adobe Illustrator 27.4.0, SVG Export Plug-In . SVG Version: 6.00 Build 0)  -->
<svg version="1.1" id="Layer_1" xmlns="http://www.w3.org/2000/svg" xmlns:xlink="http://www.w3.org/1999/xlink" x="0px" y="0px"
	 viewBox="0 0 64.7 64.7" style="enable-background:new 0 0 64.7 64.7;" xml:space="preserve">
<style type="text/css">
	.st0{fill:#345466;}
</style>
<g>
	<path class="st0" d="M12,17.6c3.1,0,5.6-2.5,5.6-5.6c0-3.1-2.5-5.6-5.6-5.6C9,6.5,6.5,9,6.5,12c0,0,0,0,0,0
		C6.5,15.1,9,17.6,12,17.6z M12,8.7c1.9,0,3.4,1.5,3.4,3.4s-1.5,3.4-3.4,3.4c-1.9,0-3.4-1.5-3.4-3.4C8.6,10.2,10.2,8.7,12,8.7
		L12,8.7z"/>
	<path class="st0" d="M60.4,47.9L60,37l2-2.8l-2.5-4.5l0.5-1.5l4.6-2.2v-4.5L60,19.2l-0.5-1.5l2.5-4.5l-2.6-3.6l-5.1,0.9L53,9.6
		l-0.7-5.1L48,3.1l-3.5,3.7h-1.6l-3.5-3.7l-4.3,1.4l-0.2,1.6l-15-0.9l-1-1l-0.3-2.3l-4-1.7l-1.8,1.4h-1.5L9.5,0.2l-4,1.7L5.2,4.2
		l-1,1L1.9,5.5l-1.7,4l1.4,1.8v1.5l-1.4,1.8l1.3,3.2L0.1,36.9C0,37.1,0,37.4,0,37.6l0,0l0,0v0.1c0,3.6,2.9,6.5,6.5,6.5
		c0.9,0,1.8-0.2,2.6-0.6l6.4-2.7c-1,2.9,0.2,6.2,2.8,7.7l-9.8,3.2c-3.5,0.7-5.8,4.1-5.1,7.6c0.6,3,3.3,5.2,6.4,5.2h0.1l39.7-2.1
		l0.6,1.5l3.4,0.7l2.8-2.7l0.7-0.2l3.8,0.5l2.3-2.6l-0.9-3.8l0.2-0.7l2.3-3.1l-1.1-3.3L60.4,47.9z M37,6.1l1.7-0.5L42,9h3.4l3.2-3.4
		l1.7,0.5l0.6,4.7l2.8,2l4.6-0.9l1,1.4l-2.2,4.1l1.1,3.3l4.3,2v1.8l-4.3,2l-1.1,3.3l2.2,4.1l-1,1.4l-4.6-0.9l-2.8,2l-0.6,4.7
		l-1.7,0.5l-3.2-3.4H42l-3.2,3.4L37,41.2l-0.6-4.7l-2.8-2L29,35.5l-1-1.4l2.2-4.1l-1.1-3.3l-4.2-2v-1.8l4.2-2l1.1-3.3L28,13.4l1-1.4
		l4.6,0.9l2.8-2L37,6.1z M2.7,9.2l0.7-1.7l1.8-0.2l2.1-2.1l0.2-1.8l1.7-0.7l1.4,1.1h3L15,2.7l1.7,0.7l0.2,1.8L19,7.3l1.8,0.2
		l0.7,1.7l-1.1,1.4v3l1.1,1.4l-0.7,1.7L19,16.9l-2.1,2.1l-0.2,1.8l-1.7,0.7l-1.4-1.1h-3l-1.4,1.1l-1.7-0.7l-0.2-1.8l-2.1-2.1
		l-1.8-0.2l-0.7-1.7l1.1-1.4v-3L2.7,9.2z M2.2,37.8v-0.2c0-2.3,1.9-4.1,4.2-4.1c2.3,0,4.1,1.9,4.1,4.2s-1.9,4.1-4.2,4.1
		C4,41.8,2.2,40,2.2,37.8z M21.6,38.8c2.4,0,4.3,1.9,4.3,4.3c0,2.4-1.9,4.3-4.3,4.3c-2.4,0-4.3-1.9-4.3-4.3l0,0
		C17.2,40.7,19.2,38.8,21.6,38.8C21.5,38.8,21.5,38.8,21.6,38.8L21.6,38.8z M5.4,58.2c0-1.7,1-3.2,2.5-3.9l1-0.3
		c2.3-0.4,4.6,1.2,4.9,3.5c0.4,2.3-1.2,4.6-3.5,4.9c-0.2,0-0.4,0.1-0.6,0.1h0C7.3,62.5,5.4,60.6,5.4,58.2z M14.7,62.2
		c2.2-2.8,1.8-6.8-1-9.1c-0.2-0.2-0.5-0.4-0.8-0.5l10.5-3.4c3.4-1,5.4-4.6,4.3-8.1c-1-3.4-4.6-5.4-8.1-4.3c-0.2,0.1-0.5,0.2-0.7,0.2
		l-6.5,2.8c1.2-3.4-0.6-7-3.9-8.2c-2.1-0.7-4.3-0.4-6.1,1l1.1-13.8l0.5,0.1l1,1l0.3,2.3l4,1.7l1.8-1.4h1.5l1.8,1.4l4-1.7l0.3-2.3
		l1-1l2.3-0.3l1.7-4l-1.4-1.8v-1.5l1.4-1.8l-0.8-2l11.6,0.7l-0.2,1.4l-1.3,0.9l-5.1-0.9l-2.6,3.6l2.5,4.5l-0.5,1.5l-4.7,2.2v4.5
		l4.6,2.2l0.5,1.5l-2.5,4.5l2.7,3.7l5.1-1l1.3,0.9l0.7,5.1l4.3,1.4l3.5-3.7h1.6l3.5,3.7l4.3-1.4l0.7-5.1l1.3-0.9l3.6,0.7l0.2,6.8
		l-0.3-0.7l-3.4-0.7l-2.8,2.7l-0.7,0.2L47,45.3l-2.3,2.6l0.9,3.8l-0.2,0.7l-2.4,3.2l1.1,3.3L48,60l0.6,0.5l0,0L14.7,62.2z
		 M60.3,54.2L60,56l0.8,3.1L59.9,60l-3.2-0.4l-1.6,0.5l-2.3,2.2l-1.2-0.2l-1.2-3L49.1,58L46,57.2L45.6,56l2-2.6l0.3-1.7l-0.8-3.1
		l0.8-0.9l3.2,0.4l1.6-0.6l2.3-2.2l1.2,0.2l1.2,3l1.3,1.2l3.1,0.9l0.4,1.2L60.3,54.2z"/>
	<path class="st0" d="M8.6,37.7c0,1.2-1,2.2-2.1,2.2s-2.2-1-2.2-2.1s1-2.2,2.1-2.2c0,0,0,0,0,0C7.6,35.6,8.6,36.5,8.6,37.7z"/>
	<path class="st0" d="M23.7,43.1c0,1.2-1,2.2-2.2,2.2s-2.2-1-2.2-2.2s1-2.2,2.2-2.2c0,0,0,0,0,0C22.7,41,23.7,41.9,23.7,43.1z"/>
	<path class="st0" d="M11.9,58.2c0,1.2-1,2.2-2.2,2.2s-2.2-1-2.2-2.2c0-1.2,1-2.2,2.2-2.2C10.9,56,11.9,57,11.9,58.2L11.9,58.2z"/>
	<path class="st0" d="M53.9,48.5c-3,0-5.4,2.4-5.4,5.4s2.4,5.4,5.4,5.4s5.4-2.4,5.4-5.4l0,0C59.3,50.9,56.9,48.5,53.9,48.5z
		 M53.9,57.1c-1.8,0-3.2-1.4-3.2-3.2c0-1.8,1.4-3.2,3.2-3.2c1.8,0,3.2,1.4,3.2,3.2c0,0,0,0,0,0C57.1,55.7,55.7,57.1,53.9,57.1z"/>
	<path class="st0" d="M43.1,34.5c6,0,10.8-4.8,10.8-10.8s-4.8-10.8-10.8-10.8c-6,0-10.8,4.8-10.8,10.8S37.1,34.5,43.1,34.5
		C43.1,34.5,43.1,34.5,43.1,34.5z M43.1,15.1c4.8,0,8.6,3.9,8.6,8.6s-3.9,8.6-8.6,8.6c-4.8,0-8.6-3.9-8.6-8.6S38.3,15.1,43.1,15.1
		L43.1,15.1z"/>
	<path class="st0" d="M43.1,30.2c3.6,0,6.5-2.9,6.5-6.5s-2.9-6.5-6.5-6.5s-6.5,2.9-6.5,6.5S39.5,30.2,43.1,30.2L43.1,30.2z
		 M43.1,19.4c2.4,0,4.3,1.9,4.3,4.3c0,2.4-1.9,4.3-4.3,4.3c-2.4,0-4.3-1.9-4.3-4.3c0,0,0,0,0,0C38.8,21.3,40.7,19.4,43.1,19.4
		C43.1,19.4,43.1,19.4,43.1,19.4L43.1,19.4z"/>
	<path class="st0" d="M58.2,3.2c0,1.8,1.5,3.2,3.2,3.2c1.8,0,3.2-1.5,3.2-3.2c0-1.8-1.4-3.2-3.2-3.2C59.6,0,58.2,1.4,58.2,3.2
		C58.2,3.2,58.2,3.2,58.2,3.2z M62.5,3.2c0,0.6-0.5,1.1-1,1.1c-0.6,0-1.1-0.5-1.1-1c0-0.6,0.5-1.1,1-1.1c0,0,0,0,0,0
		C62,2.2,62.5,2.7,62.5,3.2z"/>
	<path class="st0" d="M30.2,2.2c0,1.2-1,2.2-2.2,2.2c-1.2,0-2.2-1-2.2-2.2C25.9,1,26.8,0,28,0S30.2,1,30.2,2.2L30.2,2.2z"/>
</g>
</svg>
