<?xml version="1.0" encoding="utf-8"?>
<!-- Generator: Adobe Illustrator 27.4.0, SVG Export Plug-In . SVG Version: 6.00 Build 0)  -->
<svg version="1.1" id="Layer_1" xmlns="http://www.w3.org/2000/svg" xmlns:xlink="http://www.w3.org/1999/xlink" x="0px" y="0px"
	 viewBox="0 0 69.2 69.3" style="enable-background:new 0 0 69.2 69.3;" xml:space="preserve">
<style type="text/css">
	.st0{fill:#345466;}
</style>
<g>
	<path class="st0" d="M37.4,18.5h-3.8c-0.6,0-1-0.4-1-1c0,0,0,0,0-0.1v-6.7c0-0.6,0.4-1,1-1h3.8c2.4,0.1,4.3,2.2,4.2,4.6
		C41.5,16.7,39.7,18.5,37.4,18.5L37.4,18.5z M34.7,16.5h2.7c1.3-0.1,2.2-1.2,2.1-2.4c-0.1-1.1-1-2.1-2.1-2.1h-2.7V16.5z"/>
	<path class="st0" d="M37.7,25.9h-4.1c-0.6,0-1-0.4-1-1c0,0,0,0,0-0.1v-7.3c0-0.6,0.4-1,1-1h4.1c2.6,0,4.7,2.1,4.7,4.7
		C42.4,23.8,40.3,25.9,37.7,25.9L37.7,25.9z M34.7,23.8h3c1.4,0.1,2.7-1,2.8-2.4c0.1-1.4-1-2.7-2.4-2.8c-0.1,0-0.2,0-0.3,0h-3V23.8z
		"/>
	<path class="st0" d="M51.9,59.4c-3.6,0-6.5-3.6-6.5-8s2.9-8,6.5-8c2.3,0.1,4.3,1.4,5.3,3.5c0.3,0.5,0.1,1.1-0.4,1.4
		s-1.1,0.1-1.4-0.4c-0.6-1.4-2-2.3-3.5-2.4c-2.4,0-4.4,2.7-4.4,5.9s2,5.9,4.4,5.9c1.5-0.1,2.9-1,3.5-2.4c0.3-0.5,0.9-0.7,1.4-0.4
		s0.7,0.9,0.4,1.4C56.2,58,54.2,59.3,51.9,59.4z"/>
	<path class="st0" d="M23.5,59.6c-0.4,0-0.9-0.2-1-0.7L17.9,47l-4.7,11.9c-0.2,0.6-0.8,0.8-1.4,0.6c-0.6-0.2-0.8-0.8-0.6-1.4l0,0
		l5.6-14.4c0.2-0.4,0.6-0.7,1-0.7c0.4,0,0.9,0.2,1,0.7l5.7,14.4c0.2,0.5-0.1,1.1-0.6,1.4C23.8,59.5,23.6,59.6,23.5,59.6z"/>
	<path class="st0" d="M21.2,54.1h-6.8c-0.6,0-1-0.5-1-1.1c0-0.6,0.5-1,1-1h6.8c0.6,0,1,0.5,1,1C22.2,53.6,21.7,54.1,21.2,54.1
		L21.2,54.1z"/>
	<path class="st0" d="M65.2,33.5H54.8c0.3-0.6,0.5-1.2,0.5-1.9V4c0-2.2-1.8-4-4-4H23.7c-2.2,0-4,1.8-4,4v27.7c0,0.7,0.2,1.3,0.5,1.9
		H4c-2.2,0-4,1.8-4,4v27.7c0,2.2,1.8,4,4,4h27.7c1.1,0,2.2-0.5,2.9-1.3c0.7,0.8,1.8,1.3,2.9,1.3h27.7c2.2,0,4-1.8,4-4V37.5
		C69.2,35.3,67.4,33.5,65.2,33.5z M33.6,65.2c0,1-0.8,1.8-1.8,1.8H4c-1,0-1.9-0.8-1.9-1.8V37.5c0-1,0.8-1.9,1.9-1.9l0,0h27.7
		c1,0,1.9,0.8,1.8,1.9V65.2z M23.7,33.5c-1,0-1.9-0.8-1.9-1.8c0,0,0,0,0,0V4c0-1,0.8-1.8,1.8-1.8h27.7c1,0,1.8,0.8,1.9,1.8v27.7
		c0,1-0.8,1.9-1.9,1.9l0,0H23.7z M67.1,65.2c0,1-0.8,1.8-1.9,1.8H37.5c-1,0-1.8-0.8-1.8-1.8V37.5c0-1,0.8-1.9,1.8-1.9c0,0,0,0,0,0
		h27.7c1,0,1.9,0.8,1.9,1.9l0,0V65.2z"/>
	<path class="st0" d="M44.8,7.3h3c0.1,0,0.2,0.1,0.2,0.2c0,0,0,0,0,0V12c0,0.6,0.5,1,1.1,1c0.6,0,1-0.5,1-1V7.6c0-1.3-1-2.3-2.3-2.3
		h-3c-0.6,0-1,0.5-1,1C43.7,6.9,44.2,7.3,44.8,7.3z"/>
	<path class="st0" d="M49,14.5c-0.6,0-1,0.4-1,1v0.5c0,0.6,0.5,1,1.1,1c0.6,0,1-0.5,1-1v-0.5c0-0.6-0.4-1-1-1
		C49.1,14.5,49.1,14.5,49,14.5z"/>
</g>
</svg>
