<svg id="Layer_1" data-name="Layer 1" xmlns="http://www.w3.org/2000/svg" viewBox="0 0 23.39 14.14"><defs><style>.cls-1{fill:#d6d6d6;}</style></defs><title>focusArtboard 3</title><path class="cls-1" d="M16.71,8.06v2a.71.71,0,0,1-.39.64l-3.16,1.58a4.09,4.09,0,0,0-.94.66.71.71,0,0,1-1,0,3.94,3.94,0,0,0-1-.66L7.13,10.75a.71.71,0,0,1-.39-.64v-2l4.4,1.26a2.12,2.12,0,0,0,1.17,0Z"/><path class="cls-1" d="M19.56,7.25v4.29a.72.72,0,0,1-1.43,0V7.65Z"/><path class="cls-1" d="M11.53,8,1.55,5.1a.72.72,0,0,1,0-1.37l10-2.85a.65.65,0,0,1,.39,0l10,2.85a.71.71,0,0,1,0,1.37L11.92,8A.65.65,0,0,1,11.53,8Z"/></svg>